<svg xmlns="http://www.w3.org/2000/svg" viewBox="0 0 1200 760" role="img" aria-label="GitHub Pages Super Dashboard preview">
  <defs>
    <linearGradient id="bg" x1="0" y1="0" x2="1" y2="1">
      <stop offset="0%" stop-color="#0a1426"/>
      <stop offset="100%" stop-color="#07111f"/>
    </linearGradient>
    <radialGradient id="glowA" cx="0.12" cy="0.08" r="0.8">
      <stop offset="0%" stop-color="#78a6ff" stop-opacity="0.32"/>
      <stop offset="100%" stop-color="#78a6ff" stop-opacity="0"/>
    </radialGradient>
    <radialGradient id="glowB" cx="0.88" cy="0.12" r="0.7">
      <stop offset="0%" stop-color="#5fe2c2" stop-opacity="0.24"/>
      <stop offset="100%" stop-color="#5fe2c2" stop-opacity="0"/>
    </radialGradient>
  </defs>

  <rect width="1200" height="760" rx="44" fill="url(#bg)"/>
  <rect width="1200" height="760" rx="44" fill="url(#glowA)">
    <animate attributeName="opacity" values="0.72;1;0.72" dur="8s" repeatCount="indefinite"/>
  </rect>
  <rect width="1200" height="760" rx="44" fill="url(#glowB)">
    <animate attributeName="opacity" values="1;0.75;1" dur="6.6s" repeatCount="indefinite"/>
  </rect>

  <rect x="60" y="44" width="1080" height="94" rx="22" fill="#10213b" stroke="#2f4d78"/>
  <text x="90" y="88" fill="#f3f7ff" font-family="Inter, Segoe UI, Arial" font-size="42" font-weight="700">GitHub Pages Super Dashboard</text>
  <text x="90" y="120" fill="#a6b5cf" font-family="Inter, Segoe UI, Arial" font-size="24">Browse · Filter · Launch</text>
  <rect x="986" y="66" width="128" height="44" rx="22" fill="rgba(120,166,255,0.18)" stroke="#78a6ff"/>
  <text x="1024" y="95" fill="#cfe0ff" font-family="Inter, Segoe UI, Arial" font-size="20">Dashboard</text>

  
    <g opacity="0.9">
      <rect x="84" y="154" width="1032" height="88" rx="18" fill="#0e2441" stroke="#3c5f8d"/>
      <rect x="108" y="176" width="240" height="44" rx="12" fill="#0b1f3a" stroke="#456b9a"/>
      <rect x="368" y="176" width="240" height="44" rx="12" fill="#0b1f3a" stroke="#456b9a"/>
      <rect x="628" y="176" width="176" height="44" rx="12" fill="#0b1f3a" stroke="#456b9a"/>
      <rect x="824" y="176" width="268" height="44" rx="12" fill="#4f95ff"/>
      <text x="906" y="204" fill="#ffffff" font-family="Inter, Segoe UI, Arial" font-size="20" font-weight="700">Load Apps</text>

      <rect x="84" y="268" width="330" height="384" rx="22" fill="#132847" stroke="#3f6494"/>
      <rect x="434" y="268" width="330" height="384" rx="22" fill="#132847" stroke="#3f6494"/>
      <rect x="784" y="268" width="330" height="384" rx="22" fill="#132847" stroke="#3f6494"/>

      <rect x="84" y="268" width="330" height="176" rx="22" fill="#10305a"/>
      <rect x="434" y="268" width="330" height="176" rx="22" fill="#10305a"/>
      <rect x="784" y="268" width="330" height="176" rx="22" fill="#10305a"/>

      <rect x="112" y="590" width="126" height="38" rx="12" fill="#7bb1ff"/>
      <rect x="252" y="590" width="126" height="38" rx="12" fill="none" stroke="#5c83b5"/>
      <rect x="462" y="590" width="126" height="38" rx="12" fill="#7bb1ff"/>
      <rect x="602" y="590" width="126" height="38" rx="12" fill="none" stroke="#5c83b5"/>
      <rect x="812" y="590" width="126" height="38" rx="12" fill="#7bb1ff"/>
      <rect x="952" y="590" width="126" height="38" rx="12" fill="none" stroke="#5c83b5"/>
    </g>

    <rect x="84" y="258" width="1032" height="2" fill="#8dc1ff" opacity="0.35">
      <animate attributeName="y" values="258;652;258" dur="5.8s" repeatCount="indefinite"/>
    </rect>
    

  <rect x="80" y="160" width="1040" height="560" rx="28" fill="none" stroke="rgba(255,255,255,0.16)"/>
  <rect x="0" y="0" width="280" height="760" fill="url(#scan)">
    <animate attributeName="x" values="-320;1280" dur="4.8s" repeatCount="indefinite"/>
  </rect>

  <defs>
    <linearGradient id="scan" x1="0" y1="0" x2="1" y2="0">
      <stop offset="0%" stop-color="#ffffff" stop-opacity="0"/>
      <stop offset="50%" stop-color="#ffffff" stop-opacity="0.16"/>
      <stop offset="100%" stop-color="#ffffff" stop-opacity="0"/>
    </linearGradient>
  </defs>
</svg>