<svg xmlns="http://www.w3.org/2000/svg" width="800" height="420" viewBox="0 0 800 420" role="img" aria-label="MLGA101 animated preview">
  <defs>
    <linearGradient id="bg" x1="0" y1="0" x2="1" y2="1">
      <stop offset="0%" stop-color="#081629"/>
      <stop offset="100%" stop-color="#113a3d"/>
    </linearGradient>
  </defs>
  <rect width="800" height="420" rx="24" fill="url(#bg)"/>
  <rect x="30" y="24" width="740" height="52" rx="12" fill="#0d2438" stroke="#2a5963"/>
  <text x="48" y="56" fill="#dffaf3" font-family="Inter, Segoe UI, Arial" font-size="20" font-weight="700">MLGA101 · Genetic Algorithm Sandbox</text>

  <rect x="30" y="96" width="510" height="294" rx="16" fill="#0d1f33" stroke="#2a5963"/>
  <rect x="560" y="96" width="210" height="294" rx="16" fill="#102b34" stroke="#2a5963"/>
  <circle cx="285" cy="240" r="14" fill="#ffd166"/>
  <rect x="242" y="126" width="84" height="22" rx="8" fill="#ff7f50" opacity="0.85"/>
  <text x="254" y="141" fill="#fff" font-family="Inter, Segoe UI, Arial" font-size="11">Obstacle</text>

  <g fill="#83f0ce" opacity="0.85">
    <circle cx="95" cy="360" r="4"><animate attributeName="cx" values="95;280;95" dur="3.4s" repeatCount="indefinite"/></circle>
    <circle cx="110" cy="355" r="4"><animate attributeName="cx" values="110;295;110" dur="3.1s" repeatCount="indefinite"/></circle>
    <circle cx="125" cy="350" r="4"><animate attributeName="cx" values="125;310;125" dur="3.7s" repeatCount="indefinite"/></circle>
    <circle cx="140" cy="345" r="4"><animate attributeName="cx" values="140;325;140" dur="3.2s" repeatCount="indefinite"/></circle>
  </g>

  <rect x="580" y="120" width="170" height="16" rx="6" fill="#1a3f45"/>
  <rect x="580" y="162" width="170" height="16" rx="6" fill="#1a3f45"/>
  <rect x="580" y="204" width="170" height="16" rx="6" fill="#1a3f45"/>
  <rect x="580" y="246" width="120" height="18" rx="6" fill="#2f7f87"/>
  <rect x="580" y="288" width="170" height="18" rx="6" fill="#2f7f87" opacity="0.5"/>

  <polyline points="580,344 615,320 650,328 685,292 720,300 750,274" fill="none" stroke="#89ffd8" stroke-width="3" opacity="0.8">
    <animate attributeName="points" values="580,344 615,320 650,328 685,292 720,300 750,274;580,340 615,325 650,320 685,300 720,286 750,280;580,344 615,320 650,328 685,292 720,300 750,274" dur="3.6s" repeatCount="indefinite"/>
  </polyline>
</svg>
